{"title":"20-20 - 12-8-2016 - Fast Girl","uid":15639566,"size":1000986924,"categoryP":"video","categoryS":"tv_shows","magnet":"?xt=urn:btih:d2a824627000d713eda16b93ada4b015018eaa75&amp;dn=20-20+-+12-8-2016+-+Fast+Girl&amp;tr=udp%3A%2F%2Ftracker.leechers-paradise.org%3A6969&amp;tr=udp%3A%2F%2Fzer0day.ch%3A1337&amp;tr=udp%3A%2F%2Fopen.demonii.com%3A1337&amp;tr=udp%3A%2F%2Ftracker.coppersurfer.tk%3A6969&amp;tr=udp%3A%2F%2Fexodus.desync.com%3A6969","seeders":3,"leechers":2,"uploader":"Bullrout","files":1,"time":1472005120,"description":"20-20 - 12-8-2016 - Fast Girl\r\n\r\nThree-time Olympic runner Suzy Favor Hamilton talks about leading a double life as a high-priced Las Vegas escort. Elizabeth Vargas speaks to Hamilton's husband, Mark, about staying by her side while knowing about her prostitution.\r\n\r\n\r\n\r\nComplete name                            : 20-20 - 12-8-2016 - Fast Girl.mkv\r\nFormat                                   : Matroska\r\nFormat version                           : Version 4 / Version 2\r\nFile size                                : 955 MiB\r\nDuration                                 : 40mn 10s\r\nOverall bit rate mode                    : Variable\r\nOverall bit rate                         : 3 322 Kbps\r\nEncoded date                             : UTC 2016-08-23 22:23:03\r\nWriting application                      : mkvmerge v9.3.1 ('Mask Machine') 64bit\r\nWriting library                          : libebml v1.3.4 + libmatroska v1.4.5\r\n\r\nVideo\r\nID                                       : 2\r\nFormat                                   : AVC\r\nFormat/Info                              : Advanced Video Codec\r\nFormat profile                           :   \r\nFormat settings, CABAC                   : Yes\r\nFormat settings, ReFrames                : 3 frames\r\nCodec ID                                 : V_MPEG4/ISO/AVC\r\nDuration                                 : 40mn 10s\r\nBit rate mode                            : Variable\r\nBit rate                                 : 2 936 Kbps\r\nMaximum bit rate                         : 3 000 Kbps\r\nWidth                                    : 1 280 pixels\r\nHeight                                   : 720 pixels\r\nDisplay aspect ratio                     : 16:9\r\nFrame rate mode                          : Constant\r\nFrame rate                               : 25.000 fps\r\nStandard                                 : PAL\r\nColor space                              : YUV\r\nChroma subsampling                       : 4:2:0\r\nBit depth                                : 8 bits\r\nScan type                                : Progressive\r\nBits/(Pixel*Frame)                       : 0.127\r\nStream size                              : 844 MiB (88%)\r\nWriting library                          : x264 core 112\r\nDefault                                  : Yes\r\nForced                                   : No\r\nColor range                              : Limited\r\nColor primaries                          : BT.709\r\nTransfer characteristics                 : BT.709\r\nMatrix coefficients                      : BT.709\r\n\r\nAudio\r\nID                                       : 1\r\nFormat                                   : AC-3\r\nFormat/Info                              : Audio Coding 3\r\nMode extension                           : CM (complete main)\r\nFormat settings, Endianness              : Big\r\nCodec ID                                 : A_AC3\r\nDuration                                 : 40mn 10s\r\nBit rate mode                            : Constant\r\nBit rate                                 : 384 Kbps\r\nChannel(s)                               : 6 channels\r\nChannel positions                        : Front: L C R, Side: L R, LFE\r\nSampling rate                            : 48.0 KHz\r\nFrame rate                               : 31.250 fps (1536 spf)\r\nCompression mode                         : Lossy\r\nStream size                              : 110 MiB (12%)\r\nDefault                                  : Yes\r\nForced                                   : No","torrent":{"xt":"urn:btih:d2a824627000d713eda16b93ada4b015018eaa75","amp;dn":"20-20+-+12-8-2016+-+Fast+Girl","amp;tr":["udp%3A%2F%2Ftracker.leechers-paradise.org%3A6969","udp%3A%2F%2Fzer0day.ch%3A1337","udp%3A%2F%2Fopen.demonii.com%3A1337","udp%3A%2F%2Ftracker.coppersurfer.tk%3A6969","udp%3A%2F%2Fexodus.desync.com%3A6969"],"infoHash":"d2a824627000d713eda16b93ada4b015018eaa75","infoHashBuffer":{"type":"Buffer","data":[210,168,36,98,112,0,215,19,237,161,107,147,173,164,176,21,1,142,170,117]},"announce":[],"urlList":[]}}